<?xml version="1.0" encoding="iso-8859-1"?>
<!-- Generator: Adobe Illustrator 19.0.0, SVG Export Plug-In . SVG Version: 6.00 Build 0)  -->
<svg xmlns="http://www.w3.org/2000/svg" xmlns:xlink="http://www.w3.org/1999/xlink" version="1.1" id="Capa_1" x="0px" y="0px" viewBox="0 0 512.001 512.001" style="enable-background:new 0 0 512.001 512.001;" xml:space="preserve" width="512px" height="512px">
<g>
	<g>
		<path d="M359.42,128.292l-26.646-53.291L359.42,21.71c5-9.969-2.312-21.709-13.419-21.709h-150c-8.291,0-15,6.709-15,15    c0,101.034,0,73.878,0,176.845l-55.479,92.465l40.479,40.479l19.395-19.395c5.859-5.859,15.352-5.859,21.211,0l19.395,19.395    l40.479-40.479l-55.479-92.465v-41.845h135C357.109,150.001,364.421,138.26,359.42,128.292z" fill="#FFFFFF"/>
	</g>
</g>
<g>
	<g>
		<path d="M388.863,489.28L282.389,310.824l-45.782,45.782c-2.93,2.93-6.768,4.395-10.605,4.395s-7.676-1.465-10.605-4.395    l-19.395-19.395l-19.395,19.395c-5.859,5.859-15.352,5.859-21.211,0l-45.782-45.782L2.14,489.281    c-2.783,4.644-2.856,10.415-0.19,15.117C4.616,509.1,9.596,512,15.001,512h361c5.405,0,10.386-2.9,13.052-7.603    S391.646,493.923,388.863,489.28z" fill="#FFFFFF"/>
	</g>
</g>
<g>
	<g>
		<path d="M509.861,489.281L388.863,276.596c-5.42-9.023-20.303-9.023-25.723,0l-33.149,55.248l84.595,141.997    c6.982,11.644,7.91,25.622,3.459,38.159H497c5.405,0,10.386-2.9,13.052-7.603C512.718,499.681,512.645,493.91,509.861,489.281z" fill="#FFFFFF"/>
	</g>
</g>
<g>
</g>
<g>
</g>
<g>
</g>
<g>
</g>
<g>
</g>
<g>
</g>
<g>
</g>
<g>
</g>
<g>
</g>
<g>
</g>
<g>
</g>
<g>
</g>
<g>
</g>
<g>
</g>
<g>
</g>
</svg>
